<svg width="254" height="63" viewBox="0 0 254 63" fill="none" xmlns="http://www.w3.org/2000/svg">
    <path d="M37.5351 0L2.00361 40.0868L-0.000732422 62.8635L37.5351 0Z" fill="url(#paint0_linear_2070_3392)"/>
    <path d="M76.165 62.8629L74.3429 40.0863L37.5359 0.181641L76.165 62.8629Z" fill="url(#paint1_linear_2070_3392)"/>
    <path d="M76.1648 62.8635L37.5356 0L-0.000244141 62.8635H51.9304L43.1842 52.2951H19.861L37.5356 25.3276L61.9522 62.8635H76.1648Z" fill="url(#paint2_linear_2070_3392)"/>
    <path d="M94.2943 31.7057H105.838V44.9663H100.925V40.692C99.3764 43.923 96.482 45.2356 93.4529 45.2019C90.7267 45.1346 87.9669 43.9903 86.0148 42.0382C83.5915 39.615 82.077 36.283 82.077 32.5135C82.077 25.4456 87.3947 19.6567 94.126 19.6567C96.2127 19.6567 98.2321 20.0942 99.9486 21.0029L104.257 22.1136V27.6669H99.1745C98.2658 26.1187 96.4147 25.1763 94.126 25.1763C90.4575 25.1763 87.6303 28.4747 87.6303 32.5135C87.6303 36.4849 90.4911 39.7832 94.126 39.7832C96.4483 39.7832 98.2658 38.538 99.0399 36.2157H94.2943V31.7057ZM117.444 45.4039C111.992 45.4039 108.391 41.3988 108.391 36.4176C108.391 31.4701 112.16 27.465 117.444 27.465C122.762 27.465 126.498 31.4701 126.498 36.4176C126.498 41.3651 122.897 45.4039 117.444 45.4039ZM117.444 40.8603C119.766 40.8603 121.55 39.0428 121.55 36.4176C121.55 33.6914 119.766 32.0086 117.444 32.0086C115.189 32.0086 113.304 33.6914 113.304 36.4176C113.304 39.0091 115.189 40.8603 117.444 40.8603ZM135.666 40.49H138.291V45H128.059V40.49H130.617V23.9311H128.026V19.4211H135.699V23.9311H135.666V40.49ZM156.444 40.49H159.776V45H151.395V44.3269C150.217 44.9327 148.972 45.3366 147.693 45.3366C142.476 45.3366 138.808 41.3314 138.808 36.3503C138.808 31.3691 142.409 27.465 147.592 27.465C149.006 27.465 150.251 27.7342 151.395 28.2391V23.9311H149.006V19.4211H156.444V40.49ZM147.962 40.7593C149.409 40.7593 150.655 39.9852 151.395 38.8072V33.8261C150.655 32.6817 149.308 32.0086 147.962 32.0086C145.707 32.0086 143.822 33.7251 143.822 36.3839C143.822 39.1101 145.707 40.7593 147.962 40.7593Z" fill="#DFA000"/>
    <path d="M166.516 20.0942H189.167V27.6669H183.782V24.4359H180.349V40.49H182.974V45H172.305V40.49H174.897V24.4359H171.868V27.6669H166.516V20.0942ZM205.604 34.1626H200.993V32.4125C199.175 32.4125 197.964 32.85 197.661 34.3982V40.49H201.127V45H190.021V40.49H192.579V32.4798H190.054V27.9698H197.627V29.1478C198.569 28.4074 199.815 27.9698 201.228 27.9698C202.675 27.9698 204.291 28.0035 205.604 28.0035V34.1626ZM224.028 35.9128C224.096 36.4513 224.096 36.9898 224.062 37.5619H211.508C211.542 37.7302 211.542 37.8985 211.576 38.0668C212.047 40.0188 213.999 41.0622 215.985 41.0622C217.97 41.0622 219.485 40.5237 221.1 39.9179L222.918 43.2835C220.394 44.7981 219.014 45.4375 215.884 45.4375C209.96 45.4375 206.628 41.2641 206.628 36.2493C206.628 31.2682 210.263 27.2294 215.581 27.2294C220.932 27.2294 223.894 31.0326 224.028 35.9128ZM211.676 34.0953H218.778C218.475 32.6144 217.768 31.3355 215.446 31.3355C212.989 31.3355 212.047 32.6481 211.676 34.0953ZM235.273 34.3646C239.716 35.2396 241.197 37.0234 241.197 39.5477C241.197 43.4518 237.191 45.4039 233.422 45.4039C230.965 45.4039 229.518 44.7981 228.474 43.923H225.513V39.3457H230.157C230.157 40.6583 231.705 41.3651 233.422 41.3651C235.408 41.3651 236.249 40.7929 236.249 39.9852C236.249 39.3457 235.879 38.9082 234.768 38.6389L231.605 37.9658C227.667 37.1917 225.614 35.4079 225.614 32.6144C225.614 29.3161 228.878 27.1284 232.883 27.1284C235.61 27.1284 237.158 27.8015 238.134 28.6093H241.028V33.1866H236.788C236.788 32.1096 235.374 31.2008 232.951 31.2008C232.042 31.2008 230.696 31.4364 230.696 32.5135C230.696 33.0183 230.965 33.5231 232.177 33.7587L235.273 34.3646ZM253.215 41.0959L253.922 44.2596C252.811 44.9663 251.498 45.4039 249.614 45.4039C246.955 45.4039 244.565 43.5528 244.599 39.8169L244.632 32.2779H242.209V27.9698H244.666L244.7 23.8974L249.816 21.4741L249.782 27.9698H253.181V32.2779H249.748L249.715 39.4803C249.715 41.1295 250.253 41.4997 251.162 41.4997C252.003 41.4997 252.575 41.2978 253.215 41.0959Z" fill="#010100"/>
    <path d="M198.593 55.2231L200.357 55.7364C200.067 56.7892 198.922 58.1579 196.961 58.1579C194.921 58.1579 193.461 56.5787 193.461 54.5914C193.461 52.591 194.948 51.0512 196.961 51.0512C197.672 51.0512 198.37 51.2486 198.975 51.6171H200.251V53.5517H198.475C198.106 53.1306 197.672 52.8805 197.053 52.8805C196.066 52.8805 195.382 53.6044 195.382 54.6046C195.382 55.6179 196.106 56.3286 197.053 56.3286C197.856 56.3286 198.383 55.7495 198.593 55.2231ZM204.32 58.1579C202.188 58.1579 200.78 56.5918 200.78 54.6441C200.78 52.7095 202.254 51.1434 204.32 51.1434C206.4 51.1434 207.861 52.7095 207.861 54.6441C207.861 56.5787 206.452 58.1579 204.32 58.1579ZM204.32 56.3813C205.228 56.3813 205.926 55.6706 205.926 54.6441C205.926 53.5781 205.228 52.92 204.32 52.92C203.439 52.92 202.702 53.5781 202.702 54.6441C202.702 55.6574 203.439 56.3813 204.32 56.3813ZM220.539 56.2365H221.487V58H218.447V54.1834C218.447 53.4333 218.039 52.9727 217.341 52.9727C216.854 52.9727 216.46 53.1701 216.025 53.736C216.038 53.8281 216.038 53.9202 216.038 54.0255V56.2365H216.999V58H213.959V54.1703C213.959 53.4596 213.498 52.9858 212.854 52.9727C212.419 52.9595 211.959 53.1306 211.524 53.6702V56.2365H212.59V58H208.458V56.2365H209.445V53.1043H208.471V51.3408H211.511V51.933C212.064 51.4855 212.775 51.2092 213.498 51.2092C214.512 51.2092 215.249 51.5645 215.657 52.2883C216.223 51.6566 217.091 51.2092 218.013 51.2092C219.631 51.2092 220.539 52.1304 220.539 53.8544V56.2365ZM226.243 51.1434C228.204 51.1434 229.678 52.7226 229.678 54.6309C229.678 56.5523 228.257 58.1184 226.243 58.1184C225.677 58.1184 225.19 58.0132 224.743 57.8026V59.2634H226.02V61.0269H221.677V59.2634H222.769V53.1043H221.835V51.3408H222.769V51.3276H224.743V51.5382C225.217 51.3013 225.717 51.1434 226.243 51.1434ZM226.099 56.3418C226.98 56.3418 227.717 55.6311 227.717 54.6441C227.717 53.5649 226.993 52.92 226.099 52.92C225.559 52.92 225.072 53.2096 224.743 53.7228V55.6048C225.019 56.0391 225.519 56.3418 226.099 56.3418ZM236.298 56.2365H237.192V58H234.416V57.6447C233.823 58.0263 233.455 58.1579 232.81 58.1579C231.218 58.1579 230.27 57.2367 230.27 56.0259C230.27 54.7888 231.231 53.9071 232.889 53.9071C233.494 53.9071 233.994 53.9729 234.416 54.065V53.8676C234.416 53.1964 233.876 52.9069 233.1 52.9069C232.297 52.9069 231.718 53.0648 231.152 53.3675L230.533 52.1172C231.402 51.525 232.363 51.196 233.429 51.196C235.1 51.196 236.298 51.8935 236.298 53.8149V56.2365ZM232.086 55.947C232.086 56.3418 232.376 56.6445 232.955 56.6445C233.56 56.6445 234.073 56.4207 234.416 56.1312V55.2889H232.876C232.481 55.2889 232.086 55.5258 232.086 55.947ZM245.155 56.2365H246.103V58H243.063V54.1703C243.063 53.4333 242.629 52.9727 241.984 52.9727C241.536 52.9727 241.062 53.1306 240.641 53.6833V56.2365H241.72V58H237.588V56.2365H238.562V53.1043H237.601V51.3408H240.628V51.933C241.181 51.4855 241.905 51.2223 242.655 51.2223C244.247 51.2223 245.155 52.1436 245.155 53.8544V56.2365ZM253.6 53.1043H252.876L250.297 59.2634H251.442V61.0269H247.309V59.2634H248.481L248.967 58L246.888 53.1043H246.23V51.3408H249.481V53.1043H248.967L249.928 55.5916L250.915 53.1043H250.349V51.3408H253.6V53.1043Z" fill="#B5B5B5"/>
    <defs>
        <linearGradient id="paint0_linear_2070_3392" x1="18.7672" y1="62.8635" x2="18.7672" y2="0" gradientUnits="userSpaceOnUse">
            <stop stop-color="#623E00"/>
            <stop offset="1" stop-color="#B97C00"/>
        </linearGradient>
        <linearGradient id="paint1_linear_2070_3392" x1="56.8505" y1="0.181641" x2="56.8505" y2="62.8629" gradientUnits="userSpaceOnUse">
            <stop stop-color="#B3993C"/>
            <stop offset="0.461338" stop-color="#FFE075"/>
            <stop offset="1" stop-color="#F7C001"/>
        </linearGradient>
        <linearGradient id="paint2_linear_2070_3392" x1="38.0823" y1="0" x2="38.0823" y2="62.8635" gradientUnits="userSpaceOnUse">
            <stop stop-color="#F5CA48"/>
            <stop offset="1" stop-color="#DFA000"/>
        </linearGradient>
    </defs>
</svg>
