<svg width="255" height="63" viewBox="0 0 255 63" fill="none" xmlns="http://www.w3.org/2000/svg">
    <path d="M37.5351 0L2.00361 40.0868L-0.000732422 62.8635L37.5351 0Z" fill="url(#paint0_linear_2070_3556)"/>
    <path d="M76.165 62.8629L74.3429 40.0863L37.5359 0.181641L76.165 62.8629Z" fill="url(#paint1_linear_2070_3556)"/>
    <path d="M76.1648 62.8635L37.5356 0L-0.000244141 62.8635H51.9304L43.1842 52.2951H19.861L37.5356 25.3276L61.9522 62.8635H76.1648Z" fill="url(#paint2_linear_2070_3556)"/>
    <path d="M94.2943 31.7057H105.838V44.9663H100.925V40.692C99.3764 43.923 96.482 45.2356 93.4529 45.2019C90.7267 45.1346 87.9669 43.9903 86.0148 42.0382C83.5915 39.615 82.077 36.283 82.077 32.5135C82.077 25.4456 87.3947 19.6567 94.126 19.6567C96.2127 19.6567 98.2321 20.0942 99.9486 21.0029L104.257 22.1136V27.6669H99.1745C98.2658 26.1187 96.4147 25.1763 94.126 25.1763C90.4575 25.1763 87.6303 28.4747 87.6303 32.5135C87.6303 36.4849 90.4911 39.7832 94.126 39.7832C96.4483 39.7832 98.2658 38.538 99.0399 36.2157H94.2943V31.7057ZM117.444 45.4039C111.992 45.4039 108.391 41.3988 108.391 36.4176C108.391 31.4701 112.16 27.465 117.444 27.465C122.762 27.465 126.498 31.4701 126.498 36.4176C126.498 41.3651 122.897 45.4039 117.444 45.4039ZM117.444 40.8603C119.766 40.8603 121.55 39.0428 121.55 36.4176C121.55 33.6914 119.766 32.0086 117.444 32.0086C115.189 32.0086 113.304 33.6914 113.304 36.4176C113.304 39.0091 115.189 40.8603 117.444 40.8603ZM135.666 40.49H138.291V45H128.059V40.49H130.617V23.9311H128.026V19.4211H135.699V23.9311H135.666V40.49ZM156.444 40.49H159.776V45H151.395V44.3269C150.217 44.9327 148.972 45.3366 147.693 45.3366C142.476 45.3366 138.808 41.3314 138.808 36.3503C138.808 31.3691 142.409 27.465 147.592 27.465C149.006 27.465 150.251 27.7342 151.395 28.2391V23.9311H149.006V19.4211H156.444V40.49ZM147.962 40.7593C149.409 40.7593 150.655 39.9852 151.395 38.8072V33.8261C150.655 32.6817 149.308 32.0086 147.962 32.0086C145.707 32.0086 143.822 33.7251 143.822 36.3839C143.822 39.1101 145.707 40.7593 147.962 40.7593Z" fill="#DFA000"/>
    <path d="M166.516 20.0942H189.167V27.6669H183.782V24.4359H180.349V40.49H182.974V45H172.305V40.49H174.897V24.4359H171.868V27.6669H166.516V20.0942ZM205.604 34.1626H200.993V32.4125C199.175 32.4125 197.964 32.85 197.661 34.3982V40.49H201.127V45H190.021V40.49H192.579V32.4798H190.054V27.9698H197.627V29.1478C198.569 28.4074 199.815 27.9698 201.228 27.9698C202.675 27.9698 204.291 28.0035 205.604 28.0035V34.1626ZM224.028 35.9128C224.096 36.4513 224.096 36.9898 224.062 37.5619H211.508C211.542 37.7302 211.542 37.8985 211.576 38.0668C212.047 40.0188 213.999 41.0622 215.985 41.0622C217.97 41.0622 219.485 40.5237 221.1 39.9179L222.918 43.2835C220.394 44.7981 219.014 45.4375 215.884 45.4375C209.96 45.4375 206.628 41.2641 206.628 36.2493C206.628 31.2682 210.263 27.2294 215.581 27.2294C220.932 27.2294 223.894 31.0326 224.028 35.9128ZM211.676 34.0953H218.778C218.475 32.6144 217.768 31.3355 215.446 31.3355C212.989 31.3355 212.047 32.6481 211.676 34.0953ZM235.273 34.3646C239.716 35.2396 241.197 37.0234 241.197 39.5477C241.197 43.4518 237.191 45.4039 233.422 45.4039C230.965 45.4039 229.518 44.7981 228.474 43.923H225.513V39.3457H230.157C230.157 40.6583 231.705 41.3651 233.422 41.3651C235.408 41.3651 236.249 40.7929 236.249 39.9852C236.249 39.3457 235.879 38.9082 234.768 38.6389L231.605 37.9658C227.667 37.1917 225.614 35.4079 225.614 32.6144C225.614 29.3161 228.878 27.1284 232.883 27.1284C235.61 27.1284 237.158 27.8015 238.134 28.6093H241.028V33.1866H236.788C236.788 32.1096 235.374 31.2008 232.951 31.2008C232.042 31.2008 230.696 31.4364 230.696 32.5135C230.696 33.0183 230.965 33.5231 232.177 33.7587L235.273 34.3646ZM253.888 41.0959L254.595 44.2596C253.484 44.9663 252.172 45.4039 250.287 45.4039C247.628 45.4039 245.238 43.5528 245.272 39.8169L245.306 32.2779H242.882V27.9698H245.339L245.373 23.8974L250.489 21.4741L250.455 27.9698H253.854V32.2779H250.421L250.388 39.4803C250.388 41.1295 250.926 41.4997 251.835 41.4997C252.676 41.4997 253.249 41.2978 253.888 41.0959Z" fill="white"/>
    <path d="M199.593 55.2231L201.357 55.7364C201.067 56.7892 199.922 58.1579 197.961 58.1579C195.921 58.1579 194.461 56.5787 194.461 54.5914C194.461 52.591 195.948 51.0512 197.961 51.0512C198.672 51.0512 199.37 51.2486 199.975 51.6171H201.251V53.5517H199.475C199.106 53.1306 198.672 52.8805 198.053 52.8805C197.066 52.8805 196.382 53.6044 196.382 54.6046C196.382 55.6179 197.106 56.3286 198.053 56.3286C198.856 56.3286 199.383 55.7495 199.593 55.2231ZM205.32 58.1579C203.188 58.1579 201.78 56.5918 201.78 54.6441C201.78 52.7095 203.254 51.1434 205.32 51.1434C207.4 51.1434 208.861 52.7095 208.861 54.6441C208.861 56.5787 207.452 58.1579 205.32 58.1579ZM205.32 56.3813C206.228 56.3813 206.926 55.6706 206.926 54.6441C206.926 53.5781 206.228 52.92 205.32 52.92C204.439 52.92 203.702 53.5781 203.702 54.6441C203.702 55.6574 204.439 56.3813 205.32 56.3813ZM221.539 56.2365H222.487V58H219.447V54.1834C219.447 53.4333 219.039 52.9727 218.341 52.9727C217.854 52.9727 217.46 53.1701 217.025 53.736C217.038 53.8281 217.038 53.9202 217.038 54.0255V56.2365H217.999V58H214.959V54.1703C214.959 53.4596 214.498 52.9858 213.854 52.9727C213.419 52.9595 212.959 53.1306 212.524 53.6702V56.2365H213.59V58H209.458V56.2365H210.445V53.1043H209.471V51.3408H212.511V51.933C213.064 51.4855 213.775 51.2092 214.498 51.2092C215.512 51.2092 216.249 51.5645 216.657 52.2883C217.223 51.6566 218.091 51.2092 219.013 51.2092C220.631 51.2092 221.539 52.1304 221.539 53.8544V56.2365ZM227.243 51.1434C229.204 51.1434 230.678 52.7226 230.678 54.6309C230.678 56.5523 229.257 58.1184 227.243 58.1184C226.677 58.1184 226.19 58.0132 225.743 57.8026V59.2634H227.02V61.0269H222.677V59.2634H223.769V53.1043H222.835V51.3408H223.769V51.3276H225.743V51.5382C226.217 51.3013 226.717 51.1434 227.243 51.1434ZM227.099 56.3418C227.98 56.3418 228.717 55.6311 228.717 54.6441C228.717 53.5649 227.993 52.92 227.099 52.92C226.559 52.92 226.072 53.2096 225.743 53.7228V55.6048C226.019 56.0391 226.519 56.3418 227.099 56.3418ZM237.298 56.2365H238.192V58H235.416V57.6447C234.823 58.0263 234.455 58.1579 233.81 58.1579C232.218 58.1579 231.27 57.2367 231.27 56.0259C231.27 54.7888 232.231 53.9071 233.889 53.9071C234.494 53.9071 234.994 53.9729 235.416 54.065V53.8676C235.416 53.1964 234.876 52.9069 234.1 52.9069C233.297 52.9069 232.718 53.0648 232.152 53.3675L231.533 52.1172C232.402 51.525 233.363 51.196 234.429 51.196C236.1 51.196 237.298 51.8935 237.298 53.8149V56.2365ZM233.086 55.947C233.086 56.3418 233.376 56.6445 233.955 56.6445C234.56 56.6445 235.073 56.4207 235.416 56.1312V55.2889H233.876C233.481 55.2889 233.086 55.5258 233.086 55.947ZM246.155 56.2365H247.103V58H244.063V54.1703C244.063 53.4333 243.629 52.9727 242.984 52.9727C242.536 52.9727 242.062 53.1306 241.641 53.6833V56.2365H242.72V58H238.588V56.2365H239.562V53.1043H238.601V51.3408H241.628V51.933C242.181 51.4855 242.905 51.2223 243.655 51.2223C245.247 51.2223 246.155 52.1436 246.155 53.8544V56.2365ZM254.6 53.1043H253.876L251.297 59.2634H252.442V61.0269H248.309V59.2634H249.481L249.967 58L247.888 53.1043H247.23V51.3408H250.481V53.1043H249.967L250.928 55.5916L251.915 53.1043H251.349V51.3408H254.6V53.1043Z" fill="#B5B5B5"/>
    <defs>
        <linearGradient id="paint0_linear_2070_3556" x1="18.7672" y1="62.8635" x2="18.7672" y2="0" gradientUnits="userSpaceOnUse">
            <stop stop-color="#623E00"/>
            <stop offset="1" stop-color="#B97C00"/>
        </linearGradient>
        <linearGradient id="paint1_linear_2070_3556" x1="56.8505" y1="0.181641" x2="56.8505" y2="62.8629" gradientUnits="userSpaceOnUse">
            <stop stop-color="#B3993C"/>
            <stop offset="0.461338" stop-color="#FFE075"/>
            <stop offset="1" stop-color="#F7C001"/>
        </linearGradient>
        <linearGradient id="paint2_linear_2070_3556" x1="38.0823" y1="0" x2="38.0823" y2="62.8635" gradientUnits="userSpaceOnUse">
            <stop stop-color="#F5CA48"/>
            <stop offset="1" stop-color="#DFA000"/>
        </linearGradient>
    </defs>
</svg>
